<?xml version="1.0" encoding="UTF-8" standalone="no"?>
<svg
   width="708.41pt"
   height="420.323437pt"
   viewBox="0 0 708.41 420.323437"
   version="1.1"
   id="svg240"
   sodipodi:docname="dist_RecipeCF_fig1.svg"
   inkscape:version="1.2-alpha1 (b6a15bbbed, 2022-02-23)"
   xmlns:inkscape="http://www.inkscape.org/namespaces/inkscape"
   xmlns:sodipodi="http://sodipodi.sourceforge.net/DTD/sodipodi-0.dtd"
   xmlns:xlink="http://www.w3.org/1999/xlink"
   xmlns="http://www.w3.org/2000/svg"
   xmlns:svg="http://www.w3.org/2000/svg"
   xmlns:rdf="http://www.w3.org/1999/02/22-rdf-syntax-ns#"
   xmlns:cc="http://creativecommons.org/ns#"
   xmlns:dc="http://purl.org/dc/elements/1.1/">
  <sodipodi:namedview
     id="namedview242"
     pagecolor="#ffffff"
     bordercolor="#000000"
     borderopacity="0.25"
     inkscape:pageshadow="2"
     inkscape:pageopacity="0.0"
     inkscape:pagecheckerboard="0"
     inkscape:deskcolor="#d1d1d1"
     inkscape:document-units="pt"
     showgrid="false"
     inkscape:zoom="1.0118987"
     inkscape:cx="464.47337"
     inkscape:cy="226.30724"
     inkscape:window-width="1920"
     inkscape:window-height="974"
     inkscape:window-x="-11"
     inkscape:window-y="-11"
     inkscape:window-maximized="1"
     inkscape:current-layer="svg240" />
  <metadata
     id="metadata2">
    <rdf:RDF>
      <cc:Work>
        <dc:type
           rdf:resource="http://purl.org/dc/dcmitype/StillImage" />
        <dc:date>2023-10-21T16:26:05.171057</dc:date>
        <dc:format>image/svg+xml</dc:format>
        <dc:creator>
          <cc:Agent>
            <dc:title>Matplotlib v3.7.2, https://matplotlib.org/</dc:title>
          </cc:Agent>
        </dc:creator>
      </cc:Work>
    </rdf:RDF>
  </metadata>
  <defs
     id="defs6">
    <style
       type="text/css"
       id="style4">*{stroke-linejoin: round; stroke-linecap: butt}</style>
  </defs>
  <path
     d="M 0,420.32344 H 708.41 V 0 H 0 Z"
     style="fill:#ffffff"
     id="path8" />
  <g
     id="line2d_1"
     transform="translate(0,16.5)"
     style="stroke-width:5;stroke-miterlimit:4;stroke-dasharray:none">
    <path
       d="m 66.389545,246.18771 6.106979,-25.00853 6.106979,-26.75517 6.106979,-27.79549 6.106979,-27.95451 6.106979,-27.09602 6.10698,-25.140607 6.10698,-22.080114 6.10698,-17.985822 6.10698,-13.008834 6.10697,-7.371942 6.10698,-1.353398 6.10698,4.735802 6.10698,10.578557 6.10698,15.87901 6.10698,20.387372 6.10698,23.919286 6.10698,26.36766 6.10697,27.70609 6.10698,27.98382 6.10698,27.31404 6.10698,25.85693 6.10698,23.80053 6.10698,21.34159 6.10698,18.66849 6.10698,15.9481 6.10698,13.31678 6.10697,10.8763 6.10698,8.6936 6.10698,6.80389 6.10698,5.21583 6.10698,3.91778 6.10698,2.88423 6.10698,2.0816 6.10698,1.4731 6.10698,1.02239 6.10698,0.696 6.10697,0.46482 6.10698,0.30458 6.10698,0.19583 6.10698,0.12355 6.10698,0.0765 6.10698,0.0465 6.10698,0.0277 6.10698,0.0163 6.10697,0.009 6.10698,0.005 6.10698,0.003 6.10698,0.002 6.10698,8.5e-4 6.10698,4.5e-4 6.10698,2.3e-4 6.10698,1.2e-4 6.10698,5e-5 6.10697,3e-5 6.10698,2e-5 h 6.10698 6.10698 l 6.10698,10e-6 h 6.10698 6.10698 6.10698 6.10698 6.10697 6.10698 6.10698 6.10698 6.10698 6.10698 6.10698 6.10698 6.10698 6.10697 6.10698 6.10698 6.10698 6.10698 6.10698 6.10698 6.10698 6.10698 6.10698 6.10697 6.10698 6.10698 6.10698 6.10698 6.10698 6.10698 6.10698 6.10698 6.10697 6.10698 6.10698 6.10698 6.10698 6.10698 6.10698 6.10698 6.10697"
       clip-path="url(#pe7376a97dd)"
       style="fill:none;stroke:#000000;stroke-width:5;stroke-linecap:round;stroke-miterlimit:4;stroke-dasharray:none"
       id="path165" />
  </g>
  <g
     id="patch_3">
    <path
       d="M 36.16,390.82 V 7.2"
       style="fill:none;stroke:#cccccc;stroke-width:1.25;stroke-linecap:square;stroke-linejoin:miter"
       id="path171" />
  </g>
  <g
     id="legend_1">
    <g
       id="patch_7">
      <path
         d="M 546.23219,38.203438 H 691.41 q 2.8,0 2.8,-2.800001 V 17 q 0,-2.8 -2.8,-2.8 H 546.23219 q -2.8,0 -2.8,2.8 v 18.403437 q 0,2.800001 2.8,2.800001 z"
         style="opacity:0.8;fill:#ffffff;stroke:#cccccc;stroke-linejoin:miter"
         id="path183" />
    </g>
    <g
       id="line2d_3">
      <path
         d="m 549.03219,24.920938 h 14 14"
         style="fill:none;stroke:#808080;stroke-width:1.5;stroke-dasharray:5.55, 2.4;stroke-dashoffset:0"
         id="path186" />
    </g>
    <g
       id="text_15">
      <!-- Mean CF: 17.98 -->
      <g
         style="fill:#262626"
         transform="matrix(0.14,0,0,-0.14,588.23219,29.820938)"
         id="g229">
        <defs
           id="defs199">
          <path
             id="ArialMT-4d"
             d="m 475,0 v 4581 h 913 L 2472,1338 q 150,-454 219,-679 78,250 243,735 l 1097,3187 h 816 V 0 H 4263 V 3834 L 2931,0 H 2384 L 1059,3900 V 0 Z"
             transform="scale(0.015625)" />
          <path
             id="ArialMT-65"
             d="m 2694,1069 581,-72 Q 3138,488 2766,206 2394,-75 1816,-75 1088,-75 661,373 234,822 234,1631 q 0,838 431,1300 432,463 1119,463 666,0 1088,-453 422,-453 422,-1275 0,-50 -3,-150 H 816 q 31,-547 309,-838 278,-290 694,-290 309,0 528,162 219,163 347,519 z M 847,1978 h 1853 q -37,419 -212,628 -269,325 -697,325 -388,0 -652,-259 -264,-259 -292,-694 z"
             transform="scale(0.015625)" />
          <path
             id="ArialMT-61"
             d="M 2588,409 Q 2275,144 1986,34 1697,-75 1366,-75 819,-75 525,192 231,459 231,875 q 0,244 111,445 111,202 291,324 180,122 405,184 165,44 500,85 681,81 1003,193 3,116 3,147 0,344 -160,485 -215,190 -640,190 -397,0 -586,-139 -189,-139 -280,-492 l -550,75 q 75,353 247,570 172,217 497,334 325,118 753,118 425,0 690,-100 266,-100 391,-252 125,-151 175,-383 28,-143 28,-518 v -750 q 0,-785 36,-993 36,-207 143,-398 h -588 q -87,175 -112,409 z m -47,1257 q -307,-125 -919,-213 -347,-50 -491,-113 -143,-62 -222,-182 -78,-120 -78,-267 0,-225 170,-375 171,-150 499,-150 325,0 578,142 253,142 372,389 91,191 91,562 z"
             transform="scale(0.015625)" />
          <path
             id="ArialMT-6e"
             d="m 422,0 v 3319 h 506 v -472 q 366,547 1056,547 300,0 552,-108 252,-108 377,-283 125,-175 175,-415 31,-157 31,-547 V 0 h -563 v 2019 q 0,344 -66,514 -65,170 -232,271 -167,102 -392,102 -360,0 -621,-228 Q 984,2450 984,1813 V 0 Z"
             transform="scale(0.015625)" />
          <path
             id="ArialMT-20"
             transform="scale(0.015625)"
             d="" />
          <path
             id="ArialMT-43"
             d="m 3763,1606 606,-153 Q 4178,706 3683,314 3188,-78 2472,-78 1731,-78 1267,223 803,525 561,1097 319,1669 319,2325 q 0,716 273,1248 274,533 778,809 505,277 1111,277 688,0 1156,-350 469,-350 654,-984 l -597,-141 q -160,500 -463,728 -303,229 -762,229 -528,0 -883,-254 -355,-253 -499,-680 -143,-426 -143,-879 0,-584 170,-1020 170,-436 529,-652 360,-215 779,-215 509,0 862,293 354,294 479,872 z"
             transform="scale(0.015625)" />
          <path
             id="ArialMT-46"
             d="M 525,0 V 4581 H 3616 V 4041 H 1131 V 2622 H 3281 V 2081 H 1131 V 0 Z"
             transform="scale(0.015625)" />
          <path
             id="ArialMT-3a"
             d="m 578,2678 v 641 h 641 V 2678 Z M 578,0 v 641 h 641 V 0 Z"
             transform="scale(0.015625)" />
          <path
             id="ArialMT-39"
             d="m 350,1059 541,50 q 68,-381 262,-553 194,-172 497,-172 259,0 454,119 196,119 321,317 125,199 209,536 85,338 85,688 0,37 -3,112 -169,-268 -461,-436 -292,-167 -633,-167 -569,0 -963,412 -393,413 -393,1088 0,697 411,1122 411,425 1029,425 447,0 817,-241 371,-240 563,-686 192,-445 192,-1289 0,-878 -191,-1398 Q 2897,466 2520,194 2144,-78 1638,-78 1100,-78 759,220 419,519 350,1059 Z m 2303,2022 q 0,485 -258,769 -257,284 -620,284 -375,0 -653,-306 -278,-306 -278,-794 0,-437 264,-711 264,-273 651,-273 391,0 642,273 252,274 252,758 z"
             transform="scale(0.015625)" />
          <path
             id="ArialMT-38"
             d="m 1131,2484 q -350,129 -519,366 -168,238 -168,569 0,500 359,840 360,341 956,341 600,0 966,-349 366,-348 366,-848 0,-319 -168,-555 -167,-235 -507,-364 422,-137 642,-444 220,-306 220,-731 0,-587 -416,-987 Q 2447,-78 1769,-78 1091,-78 675,323 259,725 259,1325 q 0,447 227,748 227,302 645,411 z m -112,954 q 0,-325 209,-532 210,-206 544,-206 325,0 533,204 208,205 208,502 0,310 -215,521 -214,211 -532,211 -322,0 -535,-207 -212,-206 -212,-493 z M 838,1322 q 0,-241 114,-466 114,-225 339,-349 225,-123 484,-123 403,0 665,259 263,260 263,660 0,406 -270,672 -270,266 -677,266 -397,0 -658,-263 -260,-262 -260,-656 z"
             transform="scale(0.015625)" />
        </defs>
        <use
           xlink:href="#ArialMT-4d"
           id="use201" />
        <use
           xlink:href="#ArialMT-65"
           x="83.300781"
           id="use203" />
        <use
           xlink:href="#ArialMT-61"
           x="138.91602"
           id="use205" />
        <use
           xlink:href="#ArialMT-6e"
           x="194.53125"
           id="use207" />
        <use
           xlink:href="#ArialMT-20"
           x="250.14648"
           id="use209" />
        <use
           xlink:href="#ArialMT-43"
           x="277.92969"
           id="use211" />
        <use
           xlink:href="#ArialMT-46"
           x="350.14648"
           id="use213" />
        <use
           xlink:href="#ArialMT-3a"
           x="411.23047"
           id="use215" />
        <use
           xlink:href="#ArialMT-20"
           x="439.01367"
           id="use217" />
        <path
           id="use219"
           d="m 504.04687,0 h -8.78125 v 56 q -3.17187,-3.015625 -8.32812,-6.046875 -5.15625,-3.03125 -9.25,-4.546875 v 8.5 q 7.375,3.46875 12.89062,8.390625 5.51563,4.9375 7.8125,9.578125 h 5.65625 z"
           style="stroke-width:0.015625" />
        <path
           id="use221"
           d="m 527.14648,62.203125 v 8.453125 h 46.34375 V 63.8125 q -6.84375,-7.265625 -13.5625,-19.328125 -6.70312,-12.0625 -10.35937,-24.8125 Q 546.92773,10.6875 546.19336,0 h -9.03125 q 0.14062,8.453125 3.3125,20.40625 3.17187,11.96875 9.10937,23.078125 5.9375,11.109375 12.625,18.71875 z"
           style="stroke-width:0.015625" />
        <path
           id="use223"
           d="m 587.10547,0 v 10.015625 h 10.01562 V 0 Z"
           style="stroke-width:0.015625" />
        <use
           xlink:href="#ArialMT-39"
           x="605.81055"
           id="use225" />
        <use
           xlink:href="#ArialMT-38"
           x="661.42578"
           id="use227" />
      </g>
    </g>
  </g>
  <defs
     id="defs238">
    <clipPath
       id="pe7376a97dd">
      <rect
         x="36.16"
         y="7.2"
         width="665.05"
         height="383.62"
         id="rect235" />
    </clipPath>
  </defs>
</svg>
